<svg xmlns="http://www.w3.org/2000/svg" viewBox="0 0 24 24" fill="none" aria-hidden="true">
  <path d="M12 5.2c-1.1 0-2 .9-2 2 0 1.2 1.1 2.1 2 3.4.9-1.3 2-2.2 2-3.4 0-1.1-.9-2-2-2z" stroke="#2c231d" stroke-width="1.9" stroke-linejoin="round"/>
  <path d="M11.2 10.6c-.5.3-.8.8-.8 1.4v1.2h3.2v-1.2c0-.6-.3-1.1-.8-1.4" stroke="#2c231d" stroke-width="1.9" stroke-linecap="round"/>
  <rect x="10.4" y="13.2" width="3.2" height="4.2" rx="0.4" stroke="#2c231d" stroke-width="1.9"/>
  <line x1="10.4" y1="15.2" x2="13.6" y2="15.2" stroke="#2c231d" stroke-width="1.9" stroke-linecap="round"/>
  <path d="M8.8 17.4h6.4" stroke="#2c231d" stroke-width="1.9" stroke-linecap="round"/>
  <path d="M9.6 17.4v2.2M14.4 17.4v2.2" stroke="#2c231d" stroke-width="1.9" stroke-linecap="round"/>
  <path d="M8.4 19.6h7.2" stroke="#2c231d" stroke-width="1.9" stroke-linecap="round"/>
</svg>
